<?xml version="1.0" encoding="utf-8"?>
<!-- Generator: Adobe Illustrator 21.0.0, SVG Export Plug-In . SVG Version: 6.00 Build 0)  -->
<svg version="1.1" id="Layer_1" xmlns="http://www.w3.org/2000/svg" xmlns:xlink="http://www.w3.org/1999/xlink" x="0px" y="0px"
	 viewBox="0 0 1393 438" style="enable-background:new 0 0 1393 438;" xml:space="preserve">
<style type="text/css">
	.st0{fill:#E71D27;}
	.st1{fill:#E71E28;}
	.st2{fill:#E61E28;}
	.st3{fill:#E81C28;}
	.st4{fill:#2D292B;}
	.st5{fill:#2C292B;}
	.st6{fill:#322F31;}
	.st7{fill:#333032;}
	.st8{fill:#2D2A2C;}
	.st9{fill:#2F2C2E;}
	.st10{fill:#302D2F;}
	.st11{fill:#363335;}
	.st12{fill:#2A2628;}
	.st13{fill:#353234;}
	.st14{fill:#E81D28;}
	.st15{fill:#2E2B2D;}
</style>
<g>
	<path class="st0" d="M191.6,297.2c-7.8,0-15.5,0-23.3,0c-4.7,0-9.3-0.6-13.9-0.3c-3.9,0.3-6-1.3-8.3-4.1
		c-35-44.1-70.1-88.2-105.2-132.3c-0.6-0.8-1.2-1.6-1.9-2.3c-0.9-1-1.7-2.3-3.3-1.6c-1.3,0.6-1,2-1,3.1c-0.2,9-0.7,18-0.4,27
		c0.7,19,0.2,38,0.3,57c0.1,15.8-0.1,31.7,0.1,47.5c0,4.3-1.2,6-5.7,5.8c-7-0.2-14,0.1-21,0.2c-3.6,0.1-5.6-1.2-5.5-5.2
		c0.1-8.2-0.2-16.3-0.2-24.5c0-82.2,0-164.3,0-246.5c0-3.7,0.3-7.3,0.3-11c0-3,1.3-4.2,4.2-4.2c7.8,0.1,15.7,0.1,23.5-0.1
		c3.1-0.1,4.2,1.4,4.2,4.2c0,33.3-0.1,66.6-0.1,100c0,8.7,0,17.3,0.1,26c0,1.4-0.5,3.3,1.4,3.9c1.8,0.6,2.7-1,3.6-2.1
		c16-19.8,31.9-39.6,47.9-59.4c18.5-22.9,37.1-45.7,55.5-68.6c2.2-2.7,4.5-3.9,8.1-3.8c9.3,0.2,18.7,0,28,0.1c1.4,0,3.4-0.8,4.1,0.9
		c0.6,1.6-1.2,2.6-2.1,3.7c-16.4,19.6-32.9,39.3-49.4,58.8c-17.5,20.7-35,41.4-52.5,62.1c-2.9,3.4-5.8,6.9-8.8,10.2
		c-2.4,2.7-2.4,5.1,0,7.9c33.7,40.4,67.3,80.8,100.9,121.2c6.9,8.3,13.7,16.6,20.6,24.9C191.9,296.1,191.7,296.6,191.6,297.2z"/>
	<path class="st1" d="M631.3,151.6c0-46.3,0-92.6,0-139c0-6.8,0-6.8,6.6-6.8c42.3,0,84.6,0,127-0.1c4.2,0,5.8,1.4,5.7,5.4
		c-0.1,6.7-0.3,13.3-0.2,20c0.1,4.1-2,5.2-5.5,5.1c-7.2-0.1-14.3,0-21.5,0c-25.3,0-50.7,0-76-0.1c-3.5,0-4.8,1.1-4.7,4.5
		c0.1,29.5,0.1,59,0,88.5c0,4.3,2.1,4.9,5.6,4.8c28.8-0.1,57.6,0,86.5,0c7.5,0,7.5,0,7.5,7.4c0,6-0.1,12,0,18c0,3.3-1.2,4.6-4.7,4.6
		c-29.5-0.1-59,0-88.5-0.3c-4.6,0-6.5,0.9-6.4,6c0.2,30.3,0.2,60.7,0,91c0,4.7,1.1,6.3,6.1,6.3c34-0.2,68,0,102-0.2
		c4.7,0,6.1,1.6,5.9,6c-0.3,6.5-0.2,13-0.1,19.5c0,3.5-1.3,5-5,5c-34.7-0.2-69.3-0.3-104-0.4c-9.7,0-19.3,0.2-29,0.3
		c-7.3,0-7.3,0-7.3-7.1C631.3,243.9,631.4,197.8,631.3,151.6z"/>
	<path class="st2" d="M338.9,151.6c0-46.8,0.1-93.6-0.1-140.4c0-4.3,1.4-5.5,5.4-5.4c7.3,0.2,14.7,0.1,22,0c2.8,0,4,0.9,3.9,3.7
		c-0.1,3.2,0,6.3,0,9.5c0,80.3,0,160.6,0,240.9c0,6.9,0,6.9,6.9,6.9c32.6,0,65.3,0.1,97.9-0.1c4.5,0,6.3,1,6,5.8
		c-0.4,6.6-0.3,13.3,0,20c0.1,3.3-1.1,4.5-4.2,4.5c-5.6,0-11.3,0.1-16.9,0.1c-36-0.1-71.9-0.3-107.9-0.4c-3.2,0-6.3,0.3-9.5,0.3
		c-2.4,0-3.6-1-3.6-3.6c0.1-5,0-10,0-15C338.8,236.2,338.9,193.9,338.9,151.6C338.9,151.6,338.9,151.6,338.9,151.6z"/>
	<path class="st3" d="M969.7,151.5c0,36.8,0,73.7,0,110.5c0,6.6,0.1,6.7,6.7,6.6c4.7,0,9.3,0.2,14-0.1c4.3-0.3,6.1,1.1,5.9,5.6
		c-0.3,6-0.2,12,0,18c0.1,3.2-0.7,4.9-4.4,4.8c-16.5-0.1-33,0.1-49.4,0.2c-8.8,0-17.6-0.1-26.4,0c-3.3,0-4.8-0.6-4.6-4.5
		c0.4-6.8,0.2-13.6,0.1-20.4c-0.1-2.9,1.2-3.7,3.9-3.6c5.8,0.2,11.7,0,17.5,0.1c3.6,0.1,5.2-1.5,5.2-5.1c-0.1-3.8,0-7.7,0-11.5
		c0-70.5-0.1-141,0.1-211.5c0-5.1-1.8-6.4-6.4-6.3c-5.5,0.2-11-0.1-16.5,0.1c-2.8,0.1-4-0.9-4-3.7c0.1-7,0.1-14,0.1-21
		c0-2.9,1-4,4.1-4c25.3,0.1,50.7,0.1,76,0c3.7,0,4.9,1.3,4.7,5c-0.3,6.3-0.2,12.7,0,19c0.1,3.4-1.2,4.8-4.7,4.7
		c-5.3-0.2-10.7,0.1-16-0.1c-4.4-0.1-6,1.5-6,6.1C969.8,77.5,969.7,114.5,969.7,151.5z"/>
	<path class="st4" d="M1243,410.8c0-5.7-0.1-11.3,0.1-17c0.1-2-1.4-5.2,1.5-5.6c3.4-0.5,7.5-2,10.2,1.8
		c7.4,10.7,14.7,21.4,21.8,32.2c3.2,4.8,3.6,4.9,6.9,0.1c7.2-10.5,14.6-21,22-31.5c1.8-2.6,7.7-4,10.3-2.8c1.6,0.8,1.2,2.2,1.2,3.5
		c0,13,0,26,0.1,39c0,2.8-0.9,3.9-3.8,3.8c-3,0-3.1-1.6-3-3.9c0.1-10.3,0.1-20.7,0-31c0-1.4,0.6-3.4-1.4-3.8
		c-1.7-0.4-1.8,1.6-2.5,2.6c-7.5,10.9-15,22-22.5,32.9c-2.9,4.2-4.6,4.2-7.4,0.1c-7.2-10.4-14.4-20.8-21.6-31.2
		c-1-1.4-1.7-4-3.8-3.5c-2.4,0.6-1.2,3.1-1.2,4.7c-0.1,9.5-0.1,19,0,28.5c0,2.8-0.5,4.5-3.8,4.4c-3.3-0.1-3-2.3-3-4.6
		C1243.1,423.4,1243.1,417.1,1243,410.8C1243,410.8,1243,410.8,1243,410.8z"/>
	<path class="st5" d="M372.4,411.1c0,5.5,0.1,11-0.1,16.5c-0.1,2.1,1.7,5.3-1.3,6.2c-3.2,0.9-6.9,1.5-9.8-1.4
		c-4.1-4.2-8.2-8.3-12.3-12.4c-7.8-7.8-15.6-15.5-23.3-23.3c-1-1-2-2.1-3.3-1.7c-1.6,0.6-0.9,2.3-0.9,3.5c0,10.5-0.1,21,0.1,31.5
		c0,2.9-0.6,4.4-3.8,4.4c-3.1,0-3.4-1.8-3.4-4.3c0.1-11.7-0.1-23.3,0.1-35c0-2.4-1.7-6.2,1.8-6.9c3.5-0.7,7.4-1.2,10.7,2.2
		c7.9,8.3,16.1,16.4,24.2,24.5c3.5,3.5,7,7.1,10.6,10.6c0.9,0.9,1.9,2.1,3.4,1.2c1.2-0.7,0.8-2,0.8-3.2c-0.1-10.5-0.2-21-0.3-31.5
		c0-2.3,0-4.3,3.3-4.3c3.2,0,3.9,1.5,3.8,4.3C372.3,398.4,372.4,404.8,372.4,411.1C372.4,411.1,372.4,411.1,372.4,411.1z"/>
	<path class="st6" d="M1160.5,411c0-6.3,0.1-12.7,0-19c-0.1-3.2,1.1-4.3,4.4-4.2c9.2,0.2,18.3,0,27.5,0.1c1.6,0,4.4-0.9,4.3,1.8
		c-0.1,2.6-2.9,1.5-4.5,1.5c-6.7,0.1-13.3,0.1-20,0c-3.2-0.1-4.3,1-4.3,4.3c-0.2,13.4-0.3,13.4,13.3,13.3c3.5,0,7,0,10.5,0
		c1.4,0,3,0,3,1.7c0.1,1.8-1.7,1.8-3,1.8c-6.5,0-13,0.2-19.5-0.1c-3.3-0.1-4.7,0.8-4.4,4.2c0.2,1.7,0.1,3.3,0.1,5
		c0,9.3,0,9.3,9.1,9.3c5.8,0,11.7,0,17.5,0c1.3,0,3.5-0.7,3.6,1.5c0.1,2-1.8,2-3.3,2c-10.2,0-20.3,0-30.5,0c-2.7,0-3.8-1-3.7-3.9
		C1160.8,423.9,1160.6,417.5,1160.5,411C1160.6,411,1160.6,411,1160.5,411z"/>
	<path class="st7" d="M677.3,410.9c0-6.3,0.1-12.7,0-19c-0.1-2.8,0.5-4.3,3.8-4.2c9.7,0.2,19.3,0.1,29,0.1c1.5,0,3.4-0.3,3.4,1.8
		c0,2.3-2.1,1.6-3.4,1.6c-7,0.1-14,0.1-21,0c-3.2-0.1-4.6,1-4.6,4.3c0.2,15.5-1.5,13.2,12.2,13.3c3.5,0,7,0,10.5,0
		c1.6,0,3.9-0.5,3.8,2c-0.1,1.9-2.2,1.6-3.6,1.6c-6,0-12,0.2-18-0.1c-3.8-0.2-4.9,1.3-5,4.9c-0.2,13.5-0.3,13.5,13.2,13.5
		c4.8,0,9.7,0,14.5,0c1.3,0,2.9-0.1,2.8,1.9c-0.1,1.5-1.5,1.6-2.6,1.6c-10.8,0-21.6,0-32.5,0c-2.8,0-2.5-2-2.5-3.8
		C677.3,423.9,677.3,417.4,677.3,410.9z"/>
	<path class="st8" d="M1013.7,386.8c4,0,8,0.3,11.9,1.5c1.5,0.5,2.5,1.3,2.1,2.8c-0.5,2-1.9,1.1-3.2,0.8c-7.2-1.6-14.5-2-21.7-0.6
		c-3.5,0.7-7.2,2.1-7.7,6.7c-0.5,4.5,2.9,6.2,6.1,7.5c7.1,3,14.8,4.8,21.7,8.3c2.5,1.3,5,2.7,6.5,5.2c2.5,4.3,0.3,10-4.9,12.3
		c-11.3,5-23,4.2-34.7,1.8c-1.7-0.4-3.2-1.4-2.7-3.5c0.7-3,3-1.1,3.9-0.7c7.2,3.1,14.8,1.7,22.2,2c2.4,0.1,4.5-1,6.5-2.2
		c4.1-2.5,4.5-6.6,1.1-9.9c-3.8-3.8-9.1-4.7-13.9-6.4c-4.7-1.7-9.5-3-13.9-5.4c-3.3-1.8-5.9-4.3-5.8-8.1c0.1-3.7,2.7-6.3,6-8
		C999.8,387.8,1006.7,386.9,1013.7,386.8z"/>
	<path class="st4" d="M838.8,386.8c5.9,0.1,9.9,0.3,13.7,1.4c1.5,0.4,2.5,1.2,2.1,2.8c-0.5,2.1-1.9,1.1-3.2,0.8
		c-7-1.5-14.1-2.1-21.2-0.6c-3.6,0.8-7.4,2.3-7.8,6.6c-0.4,4.3,2.8,6.4,6.4,7.8c6.9,2.7,13.9,5.2,20.8,7.9c1.2,0.5,2.4,1.1,3.5,1.9
		c6.9,5,6.4,12.5-1.5,16c-11.3,4.9-23,4.2-34.8,1.7c-1.8-0.4-2.9-2-2.3-3.8c0.6-1.9,2.4-0.9,3.4-0.5c6.9,2.9,14.1,1.9,21.2,2.1
		c2.4,0.1,4.6-0.4,6.7-1.6c5.7-3.1,6-8.5,0.6-12.1c-3.8-2.5-8.2-3.5-12.4-5c-5-1.7-10.2-3-14.7-6.1c-6.9-4.8-6.5-11.3,1-15.2
		C826.7,387.9,833.6,387,838.8,386.8z"/>
	<path class="st4" d="M104.5,386.8c3.9-0.1,7.7,0.3,11.4,1.4c1.6,0.5,2.9,1.4,2.2,3.2c-0.7,1.9-2.1,0.6-3.3,0.4
		c-7.1-1.1-14.2-2-21.3-0.4c-3.6,0.8-7.2,2.2-7.7,6.7c-0.5,4.6,3.1,6.4,6.5,7.8c6.9,2.8,14,5.1,20.9,7.9c3.3,1.3,6.2,3.5,7.5,6.9
		c1.5,4-1.3,9.2-6.1,11.1c-11.2,4.6-22.7,3.9-34.3,1.5c-1.8-0.4-3.2-1.7-2.7-3.6c0.6-2.5,2.7-1,3.7-0.6c7.1,2.9,14.4,1.9,21.7,2
		c2.6,0,4.9-0.7,7-2.1c4.9-3.2,5.1-7.7,0.3-11.2c-3.8-2.8-8.4-3.9-12.8-5.4c-5-1.8-10.2-2.9-14.7-5.9c-6.6-4.6-6.5-11,0.5-15.1
		C89.8,387.5,97.2,387.1,104.5,386.8z"/>
	<path class="st9" d="M511.4,431.1c5.1-0.4,10.4,0.6,15.2-1.9c1-0.5,2-0.6,2.3,0.8c0.5,2.3-1.3,3-2.9,3.3c-7.7,1-15.3,2.7-23.3,1.4
		c-5.8-1-11.4-2.3-16.5-5.1c-13.9-7.8-14.6-26.4-1.2-35c12.8-8.2,26.8-9.1,41.3-6.2c1.7,0.3,3,1,2.6,2.9c-0.5,2.5-2.2,1-3.5,0.8
		c-11.1-1.9-22.1-2.8-32.4,3.1c-6.8,3.9-10.6,9.7-10.1,17.5c0.4,7.7,5.2,12.7,11.9,15.9C500.1,431,505.7,431.5,511.4,431.1z"/>
	<path class="st10" d="M895.8,388.3c5.6-1.3,8.6,0.4,11.3,4.4c3.8,5.8,8.5,11.1,12.5,16.8c1.9,2.7,3.1,2.3,4.8,0.1
		c4.8-6.1,9.9-12.1,14.7-18.3c2.3-3,5-4.1,9.3-2.8c-5.1,6.4-9.5,13.1-15.1,18.7c-6.3,6.3-8.7,13.4-7.5,22c0.4,2.8,0.2,5.5-4,5.2
		c-2.4-0.2-4-1.1-3.5-3.6c2.3-11.1-3.4-19-10.1-26.7C903.9,399.1,900.1,393.9,895.8,388.3z"/>
	<path class="st11" d="M1093.5,387.8c7,0,14,0,21,0c1.6,0,3.8-0.4,3.7,2.1c-0.1,2.2-2.3,1.4-3.6,1.4c-4.3,0.1-8.7,0.1-13-0.1
		c-3.5-0.2-4.7,1.3-4.6,4.7c0.1,11.2,0,22.3,0.1,33.5c0,2.6,0.3,4.9-3.6,5c-3.9,0.1-3.9-2.2-3.9-4.8c0-11-0.2-22,0.1-33
		c0.2-4.7-1.5-5.7-5.7-5.4c-4.1,0.3-8.3,0.1-12.5,0c-1.3,0-3,0.2-2.9-1.8c0.1-1.8,1.7-1.7,3.1-1.7
		C1078.8,387.8,1086.1,387.8,1093.5,387.8C1093.5,387.8,1093.5,387.8,1093.5,387.8z"/>
	<path class="st9" d="M257.2,411.1c0-4.8-0.1-9.6,0-14.5c0.1-3.5-0.2-6.1-4.7-5.4c-1.4,0.2-2.9-0.1-2.7-2c0.2-1.5,1.6-1.4,2.7-1.4
		c5.5,0,11,0.1,16.5,0.1c1.2,0,2.5,0.2,2.6,1.6c0.1,1.5-1.2,1.9-2.4,1.7c-4.9-0.8-5.4,2-5.3,5.9c0.2,9.5,0.2,19,0.1,28.4
		c-0.1,3.6,0.6,5.9,4.9,5.4c1.2-0.1,2.7,0,2.8,1.4c0.1,1.8-1.5,1.8-2.9,1.8c-5.3,0-10.6,0-16,0.1c-1.2,0-2.6,0-2.7-1.5
		c-0.1-2,1.5-1.9,2.8-1.8c3.7,0.3,4.5-1.7,4.4-4.9C257,421.1,257.1,416.1,257.2,411.1C257.2,411.1,257.2,411.1,257.2,411.1z"/>
	<path class="st12" d="M177.9,408.3c8.2-6.3,16.3-12.5,24.5-18.8c2.6-2,5.4-1.9,9.6-1.2c-5.3,3.8-9.8,7.1-14.2,10.3
		c-3.6,2.6-7.3,5.2-10.9,7.9c-4.5,3.3-4.4,4,0.3,7.4c8.2,5.9,16.4,11.9,24.6,17.9c0.7,0.5,1.4,0.9,1.1,2.2
		c-4.1,0.8-7.8,0.3-11.3-2.7c-8.1-6.7-16.4-13-24.6-19.5C175.8,410.2,177.3,409.4,177.9,408.3z"/>
	<path class="st13" d="M177.9,408.3c-0.3,1.2-0.6,2.4-1,3.5c-3.6-0.3-3.5,2.1-3.5,4.5c0.1,4.7,0.1,9.3,0.3,13.9c0.1,3.1-1.2,4-4.2,4
		c-3.2,0-3.3-1.8-3.3-4.2c0-12.8,0-25.6,0-38.4c0-2.5,0.3-4.1,3.5-4c3,0.1,4.2,1.2,4,4.2c-0.2,4.5,0.1,9-0.1,13.5
		C173.5,408.9,175.1,409.4,177.9,408.3z"/>
	<path class="st14" d="M1391.1,130.6c0,11.7,0,23.4,0,35.1c-2,29.3-8.8,57.1-25.2,81.9c-16.5,25-38.9,42.4-68.2,49.5
		c-34.3,8.4-68,6.9-99.6-10.8c-23.6-13.2-39.9-33.2-51.1-57.6c-15.9-35-17.1-71.7-12-109c4-29.1,14.7-55.4,34.1-77.8
		c18-20.8,40.8-33.1,67.8-38.1c20.7-3.9,41.3-3.7,61.8,1.4c25.9,6.5,46.6,20.9,62.6,41.8c15,19.6,24.1,41.9,27.6,66.4
		C1389.7,119,1390.3,124.8,1391.1,130.6z M1350.7,96c-11.3-33.7-32.7-57-69-63c-36.9-6.2-68.2,4.1-91.4,34.6
		c-13,17.1-20.2,36.5-22.8,57.7c-3.1,25.3-2.9,50.5,4.5,75.2c6.3,21.1,17.4,39.2,34.6,53.2c18.4,14.9,40,19.7,63.2,17.9
		c36.7-2.9,62.4-21.7,77.3-55.1c9.1-20.4,11.6-42.2,11.2-64.3C1358.7,132.9,1356.7,114.1,1350.7,96z"/>
	<path class="st9" d="M663.7,433.7c-4.2,1.3-7.3,0.5-10-2.7c-2.8-3.3-6.2-6.1-8.8-9.5c-4.9-6.3-11.5-7.9-19-7.8
		c-3.5,0.1-4.8,1.5-4.7,4.9c0.1,4-0.1,8,0.1,12c0.2,3.1-1.5,3.7-4,3.7c-2.6,0-3.4-1.3-3.4-3.8c0.1-13,0.1-26,0-38.9
		c0-2.9,1.3-3.7,3.9-3.7c8.8,0.2,17.6-0.3,26.4,0.8c1.6,0.2,3.2,0.8,4.7,1.4c6.1,2.5,8.4,5.5,8.1,10.5c-0.3,4.2-4.3,8.4-9.4,9.8
		c-1.5,0.4-3.7-0.3-4.1,1.9c-0.4,2.3,2,2.7,3.3,3.9C652.4,421.9,657.9,427.7,663.7,433.7z M638.2,409.5c5.8-0.5,11-4.8,11.1-9
		c0.1-4.2-3.9-7.6-10.2-8.4c-4.1-0.5-8.3-0.2-12.5-0.5c-3.8-0.3-5.2,1.4-4.8,5c0.1,1.2,0,2.3,0,3.5c0,9.7,0,9.7,9.9,9.4
		C633.9,409.5,636.1,409.7,638.2,409.5z"/>
	<path class="st15" d="M569.1,420.5c-0.8,0-1.7,0.1-2.5,0c-9.4-1.5-16.5,0.9-19.5,10.9c-1,3.3-4,3-6.7,2.9c-2-0.1-2.3-0.8-1.3-2.5
		c8.4-13.9,16.6-27.9,25.1-41.8c2-3.3,8.3-3.3,10.3-0.1c8.5,13.9,16.7,27.8,25.1,41.8c1.2,2.1,0.3,2.6-1.7,2.7
		c-2.9,0.2-5.4-0.4-6.4-3.5c-3.1-9.3-9.8-12-18.9-10.4C571.5,420.7,570.3,420.5,569.1,420.5z M557.5,414.3c-1.2,2.4,1.2,2.5,2.9,2.5
		c5.8,0,11.6,0,17.4,0.1c3.8,0.1,4.4-1.4,2.5-4.5c-3.6-6.1-7.1-12.3-10.9-18.8C564.3,400,561.1,407.3,557.5,414.3z"/>
</g>
</svg>
